# xmcd
#
# Track frame offsets:
#	150
#	18150
#	42512
#	65205
#	100610
#
# Disc length: 1607 seconds
#
# Revision: 0
# Processed by: cddbd v1.5.1PL2 Copyright (c) Steve Scherf et al.
# Submitted via: dBpowerAMP V4.0
#
DISCID=3b064505
DTITLE=D'Angelo - Cruisin' (Single)
DYEAR=1900
DGENRE=R&B
TTITLE0=Cruisin' (Original Radio Edit)
TTITLE1=Cruisin' (Dallas Austin Remix)
TTITLE2=Cruisin' (Cut The Sax Remix)
TTITLE3=Cruisin' (Cut The Sax Remix)
TTITLE4=Brown Sugar (Tne Main Body Mix)
EXTD=
EXTT0=
EXTT1=
EXTT2=
EXTT3=
EXTT4=
PLAYORDER=
